<?xml version="1.0" encoding="utf-8" standalone="yes"?>
<!DOCTYPE svg PUBLIC "-//W3C//DTD SVG 1.1//EN" "http://www.w3.org/Graphics/SVG/1.1/DTD/svg11.dtd">
<svg width="828" height="517" viewBox="0 0 828 517" style="fill:none;stroke:none;fill-rule:evenodd;clip-rule:evenodd;stroke-linecap:round;stroke-linejoin:round;stroke-miterlimit:1.5;" version="1.1" xmlns="http://www.w3.org/2000/svg" xmlns:xlink="http://www.w3.org/1999/xlink"><style id="fontImports">@import url("https://fonts.googleapis.com/css2?family=Roboto:wght@400;700&amp;display=block");</style><g id="items" style="isolation: isolate"><g id="blend" style="mix-blend-mode:normal"><g id="g-root-ro_4lolhj4h5ce8-fill" data-item-order="999981856" data-item-id="ro_4lolhj4h5ce8" data-item-class="Shape Stroke Fill ColorFillGray ColorStrokeGray" data-item-index="none" data-renderer-id="0" transform="translate(362, 204)"><g id="ro_4lolhj4h5ce8-fill" stroke="none" fill="#505050"><g><path d="M 34 10L 130 10C 130 10 154 10 154 34L 154 112C 154 112 154 136 130 136L 34 136C 34 136 10 136 10 112L 10 34C 10 34 10 10 34 10"></path></g></g></g><g id="g-root-ro_zit0w74h6o0f-fill" data-item-order="999987688" data-item-id="ro_zit0w74h6o0f" data-item-class="Shape Stroke Fill" data-item-index="none" data-renderer-id="0" transform="translate(506, 315)"><g id="ro_zit0w74h6o0f-fill" stroke="none" fill="#293f64"><g><path d="M 22 10L 226 10C 226 10 238 10 238 22L 238 52C 238 52 238 64 226 64L 22 64C 22 64 10 64 10 52L 10 22C 10 22 10 10 22 10"></path></g></g></g><g id="g-root-ro_v98csn4h5bsz-fill" data-item-order="999988336" data-item-id="ro_v98csn4h5bsz" data-item-class="Shape Stroke Fill" data-item-index="none" data-renderer-id="0" transform="translate(554, 93)"><g id="ro_v98csn4h5bsz-fill" stroke="none" fill="#4f4a20"><g><path d="M 22 10L 214 10C 214 10 226 10 226 22L 226 52C 226 52 226 64 214 64L 22 64C 22 64 10 64 10 52L 10 22C 10 22 10 10 22 10"></path></g></g></g><g id="g-root-ro_hz0vrb4h8554-fill" data-item-order="999989632" data-item-id="ro_hz0vrb4h8554" data-item-class="Shape Stroke Fill" data-item-index="none" data-renderer-id="0" transform="translate(122, 405)"><g id="ro_hz0vrb4h8554-fill" stroke="none" fill="#562d69"><g><path d="M 22 10L 190 10C 190 10 202 10 202 22L 202 52C 202 52 202 64 190 64L 22 64C 22 64 10 64 10 52L 10 22C 10 22 10 10 22 10"></path></g></g></g><g id="g-root-ro_qvwr0n4hm615-fill" data-item-order="999990280" data-item-id="ro_qvwr0n4hm615" data-item-class="Shape Stroke Fill" data-item-index="none" data-renderer-id="0" transform="translate(134, 3)"><g id="ro_qvwr0n4hm615-fill" stroke="none" fill="#2b503e"><g><path d="M 22 10L 178 10C 178 10 190 10 190 22L 190 52C 190 52 190 64 178 64L 22 64C 22 64 10 64 10 52L 10 22C 10 22 10 10 22 10"></path></g></g></g><g id="g-root-cu_1uoo3if4h9ixb-fill" data-item-order="1000000000" data-item-id="cu_1uoo3if4h9ixb" data-item-class="Curve Stroke ColorStrokeBlack" data-item-index="none" data-renderer-id="0" transform="translate(272, 57)"></g><g id="g-root-cu_4l2h1j4h9hc5-fill" data-item-order="1000000000" data-item-id="cu_4l2h1j4h9hc5" data-item-class="Curve Stroke ColorStrokeBlack" data-item-index="none" data-renderer-id="0" transform="translate(272, 57)"></g><g id="g-root-cu_8z0jwn4h9hjh-fill" data-item-order="1000000000" data-item-id="cu_8z0jwn4h9hjh" data-item-class="Curve Stroke ColorStrokeBlack" data-item-index="none" data-renderer-id="0" transform="translate(272, 57)"></g><g id="g-root-cu_hvwibr4h9iwz-fill" data-item-order="1000000000" data-item-id="cu_hvwibr4h9iwz" data-item-class="Curve Stroke ColorStrokeBlack" data-item-index="none" data-renderer-id="0" transform="translate(272, 57)"></g><g id="g-root-cu_v5hlfr4h9ibm-fill" data-item-order="1000000000" data-item-id="cu_v5hlfr4h9ibm" data-item-class="Curve Stroke ColorStrokeBlack" data-item-index="none" data-renderer-id="0" transform="translate(272, 57)"></g><g id="g-root-cu_v8lyvb4h9jib-fill" data-item-order="1000000000" data-item-id="cu_v8lyvb4h9jib" data-item-class="Curve Stroke ColorStrokeBlack" data-item-index="none" data-renderer-id="0" transform="translate(272, 57)"></g><g id="g-root-cu_zmk1qf4h9jpl-fill" data-item-order="1000000000" data-item-id="cu_zmk1qf4h9jpl" data-item-class="Curve Stroke ColorStrokeBlack" data-item-index="none" data-renderer-id="0" transform="translate(272, 57)"></g><g id="g-root-cu_zofgzr4h9iq1-fill" data-item-order="1000000000" data-item-id="cu_zofgzr4h9iq1" data-item-class="Curve Stroke ColorStrokeBlack" data-item-index="none" data-renderer-id="0" transform="translate(272, 57)"></g><g id="g-root-tx_datastru_1cxdzuv4hdpu0-fill" data-item-order="1000000000" data-item-id="tx_datastru_1cxdzuv4hdpu0" data-item-class="Label Stroke" data-item-index="none" data-renderer-id="0" transform="translate(122, 105)"><g id="tx_datastru_1cxdzuv4hdpu0-fill" stroke="none" fill="#A3A3A3"><g><text style="font: 20px &quot;Roboto&quot;, sans-serif; white-space: pre;" font-weight="20px" font-size="&quot;Roboto&quot;," font-family="sans-serif"><tspan x="12.95" y="34" dominant-baseline="ideographic">Data Structures</tspan></text></g></g></g><g id="g-root-cu_1czvzd34h9h53-fill" data-item-order="1000000000" data-item-id="cu_1czvzd34h9h53" data-item-class="Curve Stroke ColorStrokeBlack" data-item-index="none" data-renderer-id="0" transform="translate(272, 57)"></g><g id="g-root-brai_1lviwg74h5bsy-fill" data-item-order="1000000000" data-item-id="brai_1lviwg74h5bsy" data-item-class="Icon Stroke" data-item-index="none" data-renderer-id="0" transform="translate(566, 105)"></g><g id="g-root-cu_4g2ocn4h9h53-fill" data-item-order="1000000000" data-item-id="cu_4g2ocn4h9h53" data-item-class="Curve Stroke ColorStrokeBlack" data-item-index="none" data-renderer-id="0" transform="translate(506, 120)"></g><g id="g-root-tx_skillsde_v7zemf4h59mx-fill" data-item-order="1000000000" data-item-id="tx_skillsde_v7zemf4h59mx" data-item-class="Label Stroke" data-item-index="none" data-renderer-id="0" transform="translate(602, 108)"><g id="tx_skillsde_v7zemf4h59mx-fill" stroke="none" fill="#FFE60A"><g><text style="font: 20px &quot;Roboto&quot;, sans-serif; white-space: pre;" font-weight="20px" font-size="&quot;Roboto&quot;," font-family="sans-serif"><tspan x="15.54" y="34" dominant-baseline="ideographic">Skills Developed</tspan></text></g></g></g><g id="g-root-tx_algorith_hv9y2v4hdqm9-fill" data-item-order="1000000000" data-item-id="tx_algorith_hv9y2v4hdqm9" data-item-class="Label Stroke" data-item-index="none" data-renderer-id="0" transform="translate(158, 141)"><g id="tx_algorith_hv9y2v4hdqm9-fill" stroke="none" fill="#A3A3A3"><g><text style="font: 20px &quot;Roboto&quot;, sans-serif; white-space: pre;" font-weight="20px" font-size="&quot;Roboto&quot;," font-family="sans-serif"><tspan x="15.23" y="34" dominant-baseline="ideographic">Algorithms</tspan></text></g></g></g><g id="g-root-cu_18lbfev4h9k3k-fill" data-item-order="1000000000" data-item-id="cu_18lbfev4h9k3k" data-item-class="Curve Stroke ColorStrokeBlack" data-item-index="none" data-renderer-id="0" transform="translate(578, 147)"></g><g id="g-root-cu_4mbf7r4h9jid-fill" data-item-order="1000000000" data-item-id="cu_4mbf7r4h9jid" data-item-class="Curve Stroke ColorStrokeBlack" data-item-index="none" data-renderer-id="0" transform="translate(578, 147)"></g><g id="g-root-cu_hz0vrb4h9k3o-fill" data-item-order="1000000000" data-item-id="cu_hz0vrb4h9k3o" data-item-class="Curve Stroke ColorStrokeBlack" data-item-index="none" data-renderer-id="0" transform="translate(578, 147)"></g><g id="g-root-cu_vahe4n4h9iiq-fill" data-item-order="1000000000" data-item-id="cu_vahe4n4h9iiq" data-item-class="Curve Stroke ColorStrokeBlack" data-item-index="none" data-renderer-id="0" transform="translate(578, 147)"></g><g id="g-root-tx_analytic_1d3mqpz4hdrew-fill" data-item-order="1000000000" data-item-id="tx_analytic_1d3mqpz4hdrew" data-item-class="Label Stroke" data-item-index="none" data-renderer-id="0" transform="translate(602, 159)"><g id="tx_analytic_1d3mqpz4hdrew-fill" stroke="none" fill="#A3A3A3"><g><text style="font: 20px &quot;Roboto&quot;, sans-serif; white-space: pre;" font-weight="20px" font-size="&quot;Roboto&quot;," font-family="sans-serif"><tspan x="12.66" y="34" dominant-baseline="ideographic">Analytical Skills</tspan></text></g></g></g><g id="g-root-tx_database_143mevb4hdpmy-fill" data-item-order="1000000000" data-item-id="tx_database_143mevb4hdpmy" data-item-class="Label Stroke" data-item-index="none" data-renderer-id="0" transform="translate(86, 177)"><g id="tx_database_143mevb4hdpmy-fill" stroke="none" fill="#A3A3A3"><g><text style="font: 20px &quot;Roboto&quot;, sans-serif; white-space: pre;" font-weight="20px" font-size="&quot;Roboto&quot;," font-family="sans-serif"><tspan x="16.99" y="34" dominant-baseline="ideographic">Database Systems</tspan></text></g></g></g><g id="g-root-tx_programm_8ydznr4hdp8v-fill" data-item-order="1000000000" data-item-id="tx_programm_8ydznr4hdp8v" data-item-class="Label Stroke" data-item-index="none" data-renderer-id="0" transform="translate(38, 69)"><g id="tx_programm_8ydznr4hdp8v-fill" stroke="none" fill="#A3A3A3"><g><text style="font: 20px &quot;Roboto&quot;, sans-serif; white-space: pre;" font-weight="20px" font-size="&quot;Roboto&quot;," font-family="sans-serif"><tspan x="11.93" y="34" dominant-baseline="ideographic">Programming Languages</tspan></text></g></g></g><g id="g-root-tx_problems_hs5knb4hf3lt-fill" data-item-order="1000000000" data-item-id="tx_problems_hs5knb4hf3lt" data-item-class="Label Stroke" data-item-index="none" data-renderer-id="0" transform="translate(602, 195)"><g id="tx_problems_hs5knb4hf3lt-fill" stroke="none" fill="#A3A3A3"><g><text style="font: 20px &quot;Roboto&quot;, sans-serif; white-space: pre;" font-weight="20px" font-size="&quot;Roboto&quot;," font-family="sans-serif"><tspan x="13.49" y="34" dominant-baseline="ideographic">Problem-Solving Skills</tspan></text></g></g></g><g id="g-root-tx_systemde_91id3b4hdqf7-fill" data-item-order="1000000000" data-item-id="tx_systemde_91id3b4hdqf7" data-item-class="Label Stroke" data-item-index="none" data-renderer-id="0" transform="translate(122, 213)"><g id="tx_systemde_91id3b4hdqf7-fill" stroke="none" fill="#A3A3A3"><g><text style="font: 20px &quot;Roboto&quot;, sans-serif; white-space: pre;" font-weight="20px" font-size="&quot;Roboto&quot;," font-family="sans-serif"><tspan x="15.8" y="34" dominant-baseline="ideographic">System Design</tspan></text></g></g></g><g id="g-root-educ_qs5n0n4h5cen-fill" data-item-order="1000000000" data-item-id="educ_qs5n0n4h5cen" data-item-class="Icon Stroke" data-item-index="none" data-renderer-id="0" transform="translate(410, 228)"></g><g id="g-root-tx_communic_1hbc2pz4hf47e-fill" data-item-order="1000000000" data-item-id="tx_communic_1hbc2pz4hf47e" data-item-class="Label Stroke" data-item-index="none" data-renderer-id="0" transform="translate(602, 231)"><g id="tx_communic_1hbc2pz4hf47e-fill" stroke="none" fill="#A3A3A3"><g><text style="font: 20px &quot;Roboto&quot;, sans-serif; white-space: pre;" font-weight="20px" font-size="&quot;Roboto&quot;," font-family="sans-serif"><tspan x="15.31" y="34" dominant-baseline="ideographic">Communication Skills</tspan></text></g></g></g><g id="g-root-tx_programm_18kov5z4hdr0s-fill" data-item-order="1000000000" data-item-id="tx_programm_18kov5z4hdr0s" data-item-class="Label Stroke" data-item-index="none" data-renderer-id="0" transform="translate(26, 249)"><g id="tx_programm_18kov5z4hdr0s-fill" stroke="none" fill="#A3A3A3"><g><text style="font: 20px &quot;Roboto&quot;, sans-serif; white-space: pre;" font-weight="20px" font-size="&quot;Roboto&quot;," font-family="sans-serif"><tspan x="15.7" y="34" dominant-baseline="ideographic">Programming for the Web</tspan></text></g></g></g><g id="g-root-cu_4o6uh34h9iiu-fill" data-item-order="1000000000" data-item-id="cu_4o6uh34h9iiu" data-item-class="Curve Stroke ColorStrokeBlack" data-item-index="none" data-renderer-id="0" transform="translate(272, 459)"></g><g id="g-root-tx_machinel_diktdz4hdrt1-fill" data-item-order="1000000000" data-item-id="tx_machinel_diktdz4hdrt1" data-item-class="Label Stroke" data-item-index="none" data-renderer-id="0" transform="translate(98, 285)"><g id="tx_machinel_diktdz4hdrt1-fill" stroke="none" fill="#A3A3A3"><g><text style="font: 20px &quot;Roboto&quot;, sans-serif; white-space: pre;" font-weight="20px" font-size="&quot;Roboto&quot;," font-family="sans-serif"><tspan x="14.79" y="34" dominant-baseline="ideographic">Machine Learning</tspan></text></g></g></g><g id="g-root-cu_1cu9pl34h9k3u-fill" data-item-order="1000000000" data-item-id="cu_1cu9pl34h9k3u" data-item-class="Curve Stroke ColorStrokeBlack" data-item-index="none" data-renderer-id="0" transform="translate(314, 288)"></g><g id="g-root-tx_educatio_1upwp1j4h5atq-fill" data-item-order="1000000000" data-item-id="tx_educatio_1upwp1j4h5atq" data-item-class="Label Stroke" data-item-index="none" data-renderer-id="0" transform="translate(386, 282)"><g id="tx_educatio_1upwp1j4h5atq-fill" stroke="none" fill="#A3A3A3"><g><text style="font: 20px &quot;Roboto&quot;, sans-serif; white-space: pre;" font-weight="20px" font-size="&quot;Roboto&quot;," font-family="sans-serif"><tspan x="13.67" y="34" dominant-baseline="ideographic">Education</tspan></text></g></g></g><g id="g-root-cu_1lynd1j4h82kh-fill" data-item-order="1000000000" data-item-id="cu_1lynd1j4h82kh" data-item-class="Curve Stroke ColorStrokeBlack" data-item-index="none" data-renderer-id="0" transform="translate(492.5, 288)"></g><g id="g-root-tx_artifici_1d2dsjr4hdp8u-fill" data-item-order="1000000000" data-item-id="tx_artifici_1d2dsjr4hdp8u" data-item-class="Label Stroke" data-item-index="none" data-renderer-id="0" transform="translate(74, 321)"><g id="tx_artifici_1d2dsjr4hdp8u-fill" stroke="none" fill="#A3A3A3"><g><text style="font: 20px &quot;Roboto&quot;, sans-serif; white-space: pre;" font-weight="20px" font-size="&quot;Roboto&quot;," font-family="sans-serif"><tspan x="15.59" y="34" dominant-baseline="ideographic">Artificial Intelligence</tspan></text></g></g></g><g id="g-root-cu_vcctdz4h82kk-fill" data-item-order="1000000000" data-item-id="cu_vcctdz4h82kk" data-item-class="Curve Stroke ColorStrokeBlack" data-item-index="none" data-renderer-id="0" transform="translate(314, 30)"></g><g id="g-root-4_1lz9nt34h5a86-fill" data-item-order="1000000000" data-item-id="4_1lz9nt34h5a86" data-item-class="Icon Stroke" data-item-index="none" data-renderer-id="0" transform="translate(518, 327)"></g><g id="g-root-tx_degree_146qp534h5af9-fill" data-item-order="1000000000" data-item-id="tx_degree_146qp534h5af9" data-item-class="Label Stroke" data-item-index="none" data-renderer-id="0" transform="translate(554, 330)"><g id="tx_degree_146qp534h5af9-fill" stroke="none" fill="#4F92FF"><g><text style="font: 20px &quot;Roboto&quot;, sans-serif; white-space: pre;" font-weight="20px" font-size="&quot;Roboto&quot;," font-family="sans-serif"><tspan x="12.53" y="34" dominant-baseline="ideographic">Computer Science</tspan></text></g></g></g><g id="g-root-tx_software_i09qrr4hdq13-fill" data-item-order="1000000000" data-item-id="tx_software_i09qrr4hdq13" data-item-class="Label Stroke" data-item-index="none" data-renderer-id="0" transform="translate(62, 357)"><g id="tx_software_i09qrr4hdq13-fill" stroke="none" fill="#A3A3A3"><g><text style="font: 20px &quot;Roboto&quot;, sans-serif; white-space: pre;" font-weight="20px" font-size="&quot;Roboto&quot;," font-family="sans-serif"><tspan x="17.32" y="34" dominant-baseline="ideographic">Software Engineering</tspan></text></g></g></g><g id="g-root-cu_1cw54uf4h9j48-fill" data-item-order="1000000000" data-item-id="cu_1cw54uf4h9j48" data-item-class="Curve Stroke ColorStrokeBlack" data-item-index="none" data-renderer-id="0" transform="translate(547.4545288085938, 369)"></g><g id="g-root-cu_v3m66f4h9jb9-fill" data-item-order="1000000000" data-item-id="cu_v3m66f4h9jb9" data-item-class="Curve Stroke ColorStrokeBlack" data-item-index="none" data-renderer-id="0" transform="translate(547.4545288085938, 369)"></g><g id="g-root-tx_bracuniv_18eg4av4hdpfx-fill" data-item-order="1000000000" data-item-id="tx_bracuniv_18eg4av4hdpfx" data-item-class="Label Stroke" data-item-index="none" data-renderer-id="0" transform="translate(602, 381)"><g id="tx_bracuniv_18eg4av4hdpfx-fill" stroke="none" fill="#A3A3A3"><g><text style="font: 20px &quot;Roboto&quot;, sans-serif; white-space: pre;" font-weight="20px" font-size="&quot;Roboto&quot;," font-family="sans-serif"><tspan x="16.69" y="34" dominant-baseline="ideographic">BRAC University</tspan></text></g></g></g><g id="g-root-book_1d2dsjr4hm6tc-fill" data-item-order="1000000000" data-item-id="book_1d2dsjr4hm6tc" data-item-class="Icon Stroke" data-item-index="none" data-renderer-id="0" transform="translate(272, 15)"></g><g id="g-root-tx_achievem_dhyfgn4h83ra-fill" data-item-order="1000000000" data-item-id="tx_achievem_dhyfgn4h83ra" data-item-class="Label Stroke" data-item-index="none" data-renderer-id="0" transform="translate(134, 420)"><g id="tx_achievem_dhyfgn4h83ra-fill" stroke="none" fill="#CD6AFB"><g><text style="font: 20px &quot;Roboto&quot;, sans-serif; white-space: pre;" font-weight="20px" font-size="&quot;Roboto&quot;," font-family="sans-serif"><tspan x="12.98" y="34" dominant-baseline="ideographic">Achievements</tspan></text></g></g></g><g id="g-root-2_zqaw934h82rz-fill" data-item-order="1000000000" data-item-id="2_zqaw934h82rz" data-item-class="Icon Stroke" data-item-index="none" data-renderer-id="0" transform="translate(272, 417)"></g><g id="g-root-tx_jul2020o_vk5j4hdrt2-fill" data-item-order="1000000000" data-item-id="tx_jul2020o_vk5j4hdrt2" data-item-class="Label Stroke" data-item-index="none" data-renderer-id="0" transform="translate(602, 417)"><g id="tx_jul2020o_vk5j4hdrt2-fill" stroke="none" fill="#A3A3A3"><g><text style="font: 20px &quot;Roboto&quot;, sans-serif; white-space: pre;" font-weight="20px" font-size="&quot;Roboto&quot;," font-family="sans-serif"><tspan x="15.77" y="34" dominant-baseline="ideographic">Jul 2020 – Oct 2024</tspan></text></g></g></g><g id="g-root-tx_scholars_18hkhqf4hf40c-fill" data-item-order="1000000000" data-item-id="tx_scholars_18hkhqf4hf40c" data-item-class="Label Stroke" data-item-index="none" data-renderer-id="0" transform="translate(2, 471)"><g id="tx_scholars_18hkhqf4hf40c-fill" stroke="none" fill="#A3A3A3"><g><text style="font: 20px &quot;Roboto&quot;, sans-serif; white-space: pre;" font-weight="20px" font-size="&quot;Roboto&quot;," font-family="sans-serif"><tspan x="16.51" y="34" dominant-baseline="ideographic">Scholarship for 3 Semesters</tspan></text></g></g></g><g id="g-root-tx_coursewo_meuapz4hm4nb-fill" data-item-order="1000000000" data-item-id="tx_coursewo_meuapz4hm4nb" data-item-class="Label Stroke" data-item-index="none" data-renderer-id="0" transform="translate(146, 18)"><g id="tx_coursewo_meuapz4hm4nb-fill" stroke="none" fill="#44E095"><g><text style="font: 20px &quot;Roboto&quot;, sans-serif; white-space: pre;" font-weight="20px" font-size="&quot;Roboto&quot;," font-family="sans-serif"><tspan x="16.77" y="34" dominant-baseline="ideographic">Coursework</tspan></text></g></g></g><g id="g-root-tx_teamwork_8ydznr4hf3er-fill" data-item-order="1000000000" data-item-id="tx_teamwork_8ydznr4hf3er" data-item-class="Label Stroke" data-item-index="none" data-renderer-id="0" transform="translate(602, 267)"><g id="tx_teamwork_8ydznr4hf3er-fill" stroke="none" fill="#A3A3A3"><g><text style="font: 20px &quot;Roboto&quot;, sans-serif; white-space: pre;" font-weight="20px" font-size="&quot;Roboto&quot;," font-family="sans-serif"><tspan x="15.43" y="34" dominant-baseline="ideographic">Teamwork Skills</tspan></text></g></g></g><g id="g-root-ro_4lolhj4h5ce8-stroke" data-item-order="999981856" data-item-id="ro_4lolhj4h5ce8" data-item-class="Shape Stroke Fill ColorFillGray ColorStrokeGray" data-item-index="none" data-renderer-id="0" transform="translate(362, 204)"><g id="ro_4lolhj4h5ce8-stroke" fill="none" stroke-linecap="round" stroke-linejoin="round" stroke-miterlimit="4" stroke="#A3A3A3" stroke-width="2"><g><path d="M 34 10L 130 10C 130 10 154 10 154 34L 154 112C 154 112 154 136 130 136L 34 136C 34 136 10 136 10 112L 10 34C 10 34 10 10 34 10"></path></g></g></g><g id="g-root-ro_zit0w74h6o0f-stroke" data-item-order="999987688" data-item-id="ro_zit0w74h6o0f" data-item-class="Shape Stroke Fill" data-item-index="none" data-renderer-id="0" transform="translate(506, 315)"><g id="ro_zit0w74h6o0f-stroke" fill="none" stroke-linecap="round" stroke-linejoin="round" stroke-miterlimit="4" stroke="#4F92FF" stroke-width="2"><g><path d="M 22 10L 226 10C 226 10 238 10 238 22L 238 52C 238 52 238 64 226 64L 22 64C 22 64 10 64 10 52L 10 22C 10 22 10 10 22 10"></path></g></g></g><g id="g-root-ro_v98csn4h5bsz-stroke" data-item-order="999988336" data-item-id="ro_v98csn4h5bsz" data-item-class="Shape Stroke Fill" data-item-index="none" data-renderer-id="0" transform="translate(554, 93)"><g id="ro_v98csn4h5bsz-stroke" fill="none" stroke-linecap="round" stroke-linejoin="round" stroke-miterlimit="4" stroke="#FFE60A" stroke-width="2"><g><path d="M 22 10L 214 10C 214 10 226 10 226 22L 226 52C 226 52 226 64 214 64L 22 64C 22 64 10 64 10 52L 10 22C 10 22 10 10 22 10"></path></g></g></g><g id="g-root-ro_hz0vrb4h8554-stroke" data-item-order="999989632" data-item-id="ro_hz0vrb4h8554" data-item-class="Shape Stroke Fill" data-item-index="none" data-renderer-id="0" transform="translate(122, 405)"><g id="ro_hz0vrb4h8554-stroke" fill="none" stroke-linecap="round" stroke-linejoin="round" stroke-miterlimit="4" stroke="#CD6AFB" stroke-width="2"><g><path d="M 22 10L 190 10C 190 10 202 10 202 22L 202 52C 202 52 202 64 190 64L 22 64C 22 64 10 64 10 52L 10 22C 10 22 10 10 22 10"></path></g></g></g><g id="g-root-ro_qvwr0n4hm615-stroke" data-item-order="999990280" data-item-id="ro_qvwr0n4hm615" data-item-class="Shape Stroke Fill" data-item-index="none" data-renderer-id="0" transform="translate(134, 3)"><g id="ro_qvwr0n4hm615-stroke" fill="none" stroke-linecap="round" stroke-linejoin="round" stroke-miterlimit="4" stroke="#44E095" stroke-width="2"><g><path d="M 22 10L 178 10C 178 10 190 10 190 22L 190 52C 190 52 190 64 178 64L 22 64C 22 64 10 64 10 52L 10 22C 10 22 10 10 22 10"></path></g></g></g><g id="g-root-cu_1uoo3if4h9ixb-stroke" data-item-order="1000000000" data-item-id="cu_1uoo3if4h9ixb" data-item-class="Curve Stroke ColorStrokeBlack" data-item-index="none" data-renderer-id="0" transform="translate(272, 57)"><g id="cu_1uoo3if4h9ixb-stroke" fill="none" stroke-linecap="round" stroke-linejoin="round" stroke-miterlimit="4" stroke="#666666" stroke-width="2" stroke-dasharray="5.0, 7.0"><g><path d="M 28 10L 28 58L 28 106L 19 106L 10 106"></path></g></g></g><g id="g-root-cu_4l2h1j4h9hc5-stroke" data-item-order="1000000000" data-item-id="cu_4l2h1j4h9hc5" data-item-class="Curve Stroke ColorStrokeBlack" data-item-index="none" data-renderer-id="0" transform="translate(272, 57)"><g id="cu_4l2h1j4h9hc5-stroke" fill="none" stroke-linecap="round" stroke-linejoin="round" stroke-miterlimit="4" stroke="#666666" stroke-width="2" stroke-dasharray="5.0, 7.0"><g><path d="M 28 10L 28 112L 28 214L 19 214L 10 214"></path></g></g></g><g id="g-root-cu_8z0jwn4h9hjh-stroke" data-item-order="1000000000" data-item-id="cu_8z0jwn4h9hjh" data-item-class="Curve Stroke ColorStrokeBlack" data-item-index="none" data-renderer-id="0" transform="translate(272, 57)"><g id="cu_8z0jwn4h9hjh-stroke" fill="none" stroke-linecap="round" stroke-linejoin="round" stroke-miterlimit="4" stroke="#666666" stroke-width="2" stroke-dasharray="5.0, 7.0"><g><path d="M 28 10L 28 40L 28 70L 19 70L 10 70"></path></g></g></g><g id="g-root-cu_hvwibr4h9iwz-stroke" data-item-order="1000000000" data-item-id="cu_hvwibr4h9iwz" data-item-class="Curve Stroke ColorStrokeBlack" data-item-index="none" data-renderer-id="0" transform="translate(272, 57)"><g id="cu_hvwibr4h9iwz-stroke" fill="none" stroke-linecap="round" stroke-linejoin="round" stroke-miterlimit="4" stroke="#666666" stroke-width="2" stroke-dasharray="5.0, 7.0"><g><path d="M 28 10L 28 94L 28 178L 19 178L 10 178"></path></g></g></g><g id="g-root-cu_v5hlfr4h9ibm-stroke" data-item-order="1000000000" data-item-id="cu_v5hlfr4h9ibm" data-item-class="Curve Stroke ColorStrokeBlack" data-item-index="none" data-renderer-id="0" transform="translate(272, 57)"><g id="cu_v5hlfr4h9ibm-stroke" fill="none" stroke-linecap="round" stroke-linejoin="round" stroke-miterlimit="4" stroke="#666666" stroke-width="2" stroke-dasharray="5.0, 7.0"><g><path d="M 28 10L 28 22L 28 34L 19 34L 10 34"></path></g></g></g><g id="g-root-cu_v8lyvb4h9jib-stroke" data-item-order="1000000000" data-item-id="cu_v8lyvb4h9jib" data-item-class="Curve Stroke ColorStrokeBlack" data-item-index="none" data-renderer-id="0" transform="translate(272, 57)"><g id="cu_v8lyvb4h9jib-stroke" fill="none" stroke-linecap="round" stroke-linejoin="round" stroke-miterlimit="4" stroke="#666666" stroke-width="2" stroke-dasharray="5.0, 7.0"><g><path d="M 28 10L 28 49L 28 310C 28.00002 316.627427 22.627437 322.00001 16.00002 322.000011L 15.9 322L 10 322"></path></g></g></g><g id="g-root-cu_zmk1qf4h9jpl-stroke" data-item-order="1000000000" data-item-id="cu_zmk1qf4h9jpl" data-item-class="Curve Stroke ColorStrokeBlack" data-item-index="none" data-renderer-id="0" transform="translate(272, 57)"><g id="cu_zmk1qf4h9jpl-stroke" fill="none" stroke-linecap="round" stroke-linejoin="round" stroke-miterlimit="4" stroke="#666666" stroke-width="2" stroke-dasharray="5.0, 7.0"><g><path d="M 28 10L 28 76L 28 142L 19 142L 10 142"></path></g></g></g><g id="g-root-cu_zofgzr4h9iq1-stroke" data-item-order="1000000000" data-item-id="cu_zofgzr4h9iq1" data-item-class="Curve Stroke ColorStrokeBlack" data-item-index="none" data-renderer-id="0" transform="translate(272, 57)"><g id="cu_zofgzr4h9iq1-stroke" fill="none" stroke-linecap="round" stroke-linejoin="round" stroke-miterlimit="4" stroke="#666666" stroke-width="2" stroke-dasharray="5.0, 7.0"><g><path d="M 28 10L 28 148L 28 286L 19 286L 10 286"></path></g></g></g><g id="g-root-tx_datastru_1cxdzuv4hdpu0-stroke" data-item-order="1000000000" data-item-id="tx_datastru_1cxdzuv4hdpu0" data-item-class="Label Stroke" data-item-index="none" data-renderer-id="0" transform="translate(122, 105)"></g><g id="g-root-cu_1czvzd34h9h53-stroke" data-item-order="1000000000" data-item-id="cu_1czvzd34h9h53" data-item-class="Curve Stroke ColorStrokeBlack" data-item-index="none" data-renderer-id="0" transform="translate(272, 57)"><g id="cu_1czvzd34h9h53-stroke" fill="none" stroke-linecap="round" stroke-linejoin="round" stroke-miterlimit="4" stroke="#666666" stroke-width="2" stroke-dasharray="5.0, 7.0"><g><path d="M 28 10L 28 130L 28 250L 19 250L 10 250"></path></g></g></g><g id="g-root-brai_1lviwg74h5bsy-stroke" data-item-order="1000000000" data-item-id="brai_1lviwg74h5bsy" data-item-class="Icon Stroke" data-item-index="none" data-renderer-id="0" transform="translate(566, 105)"><g id="brai_1lviwg74h5bsy-stroke" fill="none" stroke-linecap="round" stroke-linejoin="round" stroke-miterlimit="4" stroke="#FFE60A" stroke-width="2"><g><path d="M 28.125 14.40375C 28.125774 12.810039 26.98951 11.442582 25.422604 11.151506C 23.8557 10.860431 22.304136 11.728584 21.7325 13.216249C 20.368065 12.821942 18.904594 13.347359 18.102541 14.519482C 17.300488 15.691604 17.340788 17.246014 18.202499 18.375C 17.05374 19.222744 16.580101 20.712883 17.028593 22.068308C 17.477083 23.423733 18.746061 24.337269 20.17375 24.3325L 24.31625 24.3325C 26.41729 24.335955 28.122931 22.63479 28.125 20.533751C 28.125 22.633812 29.827438 24.33625 31.9275 24.33625L 36.07 24.33625C 37.498642 24.340517 38.767918 23.425337 39.215168 22.068502C 39.662422 20.711668 39.18615 19.221106 38.035004 18.375C 38.912464 17.249638 38.961983 15.686179 38.157486 14.507547C 37.352993 13.328916 35.878963 12.805379 34.511253 13.2125C 33.939613 11.724834 32.38805 10.856681 30.821148 11.147757C 29.254242 11.438832 28.117977 12.806289 28.11875 14.4ZM 28.11875 20.533751L 28.11875 13.74125M 31.429998 14.3525L 31.429998 15.015M 10.625 37.583748L 18.395 38.833748C 20.012718 39.058643 21.658806 38.726254 23.0625 37.891251L 31.1975 33.055C 32.335583 32.378128 32.709435 30.906796 32.032501 29.768749L 32.032501 29.768749C 31.354506 28.63413 29.885818 28.262764 28.75 28.938749L 22.3925 32.716251M 10.625 31.345001L 13.925 29.383751C 15.146179 28.657812 16.555017 28.309843 17.973749 28.383749L 21.26 28.555C 21.87195 28.55759 22.456135 28.810713 22.876518 29.255424C 23.296906 29.700134 23.5168 30.297621 23.484999 30.908749L 23.485001 30.908749C 23.426868 32.035477 22.538969 32.942665 21.41375 33.024998L 17.217501 33M 38.035 18.375C 36.719231 17.629633 35.049454 18.061453 34.259998 19.35125M 34.51125 13.216249C 34.786247 13.773904 34.858295 14.409965 34.715 15.014999M 33.355 21.92375C 32.292339 21.92375 31.430691 21.062658 31.429998 20M 24.799999 14.3525L 24.799999 15.015M 18.195 18.375C 19.510389 17.629759 21.179771 18.061619 21.96875 19.35125M 21.71875 13.216249C 21.442822 13.773603 21.370308 14.409852 21.51375 15.015M 22.875 21.92375C 23.937374 21.923061 24.79862 21.062374 24.799999 20"></path></g></g></g><g id="g-root-cu_4g2ocn4h9h53-stroke" data-item-order="1000000000" data-item-id="cu_4g2ocn4h9h53" data-item-class="Curve Stroke ColorStrokeBlack" data-item-index="none" data-renderer-id="0" transform="translate(506, 120)"><g id="cu_4g2ocn4h9h53-stroke" fill="none" stroke-linecap="round" stroke-linejoin="round" stroke-miterlimit="4" stroke="#666666" stroke-width="2" stroke-dasharray="5.0, 7.0"><g><path d="M 10 136L 13 136L 13.1 136C 24.642746 136.000005 33.999996 126.642756 33.999996 115.100004L 34 115L 34 30.9C 33.999999 19.357249 43.357248 10.000001 54.899999 10.000002L 55 10L 58 10"></path></g></g></g><g id="g-root-tx_skillsde_v7zemf4h59mx-stroke" data-item-order="1000000000" data-item-id="tx_skillsde_v7zemf4h59mx" data-item-class="Label Stroke" data-item-index="none" data-renderer-id="0" transform="translate(602, 108)"></g><g id="g-root-tx_algorith_hv9y2v4hdqm9-stroke" data-item-order="1000000000" data-item-id="tx_algorith_hv9y2v4hdqm9" data-item-class="Label Stroke" data-item-index="none" data-renderer-id="0" transform="translate(158, 141)"></g><g id="g-root-cu_18lbfev4h9k3k-stroke" data-item-order="1000000000" data-item-id="cu_18lbfev4h9k3k" data-item-class="Curve Stroke ColorStrokeBlack" data-item-index="none" data-renderer-id="0" transform="translate(578, 147)"><g id="cu_18lbfev4h9k3k-stroke" fill="none" stroke-linecap="round" stroke-linejoin="round" stroke-miterlimit="4" stroke="#666666" stroke-width="2" stroke-dasharray="5.0, 7.0"><g><path d="M 10 10L 10 40L 10 70L 19 70L 28 70"></path></g></g></g><g id="g-root-cu_4mbf7r4h9jid-stroke" data-item-order="1000000000" data-item-id="cu_4mbf7r4h9jid" data-item-class="Curve Stroke ColorStrokeBlack" data-item-index="none" data-renderer-id="0" transform="translate(578, 147)"><g id="cu_4mbf7r4h9jid-stroke" fill="none" stroke-linecap="round" stroke-linejoin="round" stroke-miterlimit="4" stroke="#666666" stroke-width="2" stroke-dasharray="5.0, 7.0"><g><path d="M 10 10L 10 22L 10 34L 19 34L 28 34"></path></g></g></g><g id="g-root-cu_hz0vrb4h9k3o-stroke" data-item-order="1000000000" data-item-id="cu_hz0vrb4h9k3o" data-item-class="Curve Stroke ColorStrokeBlack" data-item-index="none" data-renderer-id="0" transform="translate(578, 147)"><g id="cu_hz0vrb4h9k3o-stroke" fill="none" stroke-linecap="round" stroke-linejoin="round" stroke-miterlimit="4" stroke="#666666" stroke-width="2" stroke-dasharray="5.0, 7.0"><g><path d="M 10 10L 10 26.5L 10 130C 10.000005 136.627425 15.372589 142.000008 22.000006 142.000007L 22.1 142L 28 142"></path></g></g></g><g id="g-root-cu_vahe4n4h9iiq-stroke" data-item-order="1000000000" data-item-id="cu_vahe4n4h9iiq" data-item-class="Curve Stroke ColorStrokeBlack" data-item-index="none" data-renderer-id="0" transform="translate(578, 147)"><g id="cu_vahe4n4h9iiq-stroke" fill="none" stroke-linecap="round" stroke-linejoin="round" stroke-miterlimit="4" stroke="#666666" stroke-width="2" stroke-dasharray="5.0, 7.0"><g><path d="M 10 10L 10 58L 10 106L 19 106L 28 106"></path></g></g></g><g id="g-root-tx_analytic_1d3mqpz4hdrew-stroke" data-item-order="1000000000" data-item-id="tx_analytic_1d3mqpz4hdrew" data-item-class="Label Stroke" data-item-index="none" data-renderer-id="0" transform="translate(602, 159)"></g><g id="g-root-tx_database_143mevb4hdpmy-stroke" data-item-order="1000000000" data-item-id="tx_database_143mevb4hdpmy" data-item-class="Label Stroke" data-item-index="none" data-renderer-id="0" transform="translate(86, 177)"></g><g id="g-root-tx_programm_8ydznr4hdp8v-stroke" data-item-order="1000000000" data-item-id="tx_programm_8ydznr4hdp8v" data-item-class="Label Stroke" data-item-index="none" data-renderer-id="0" transform="translate(38, 69)"></g><g id="g-root-tx_problems_hs5knb4hf3lt-stroke" data-item-order="1000000000" data-item-id="tx_problems_hs5knb4hf3lt" data-item-class="Label Stroke" data-item-index="none" data-renderer-id="0" transform="translate(602, 195)"></g><g id="g-root-tx_systemde_91id3b4hdqf7-stroke" data-item-order="1000000000" data-item-id="tx_systemde_91id3b4hdqf7" data-item-class="Label Stroke" data-item-index="none" data-renderer-id="0" transform="translate(122, 213)"></g><g id="g-root-educ_qs5n0n4h5cen-stroke" data-item-order="1000000000" data-item-id="educ_qs5n0n4h5cen" data-item-class="Icon Stroke" data-item-index="none" data-renderer-id="0" transform="translate(410, 228)"><g id="educ_qs5n0n4h5cen-stroke" fill="none" stroke-linecap="round" stroke-linejoin="round" stroke-miterlimit="4" stroke="#4F92FF" stroke-width="2"><g><path d="M 29 11.032L 29 17.032M 19 43.032001L 13 43.032001C 11.895431 43.032001 11 42.13657 11 41.031998L 11 21.032C 11 19.927429 11.895431 19.032 13 19.032L 24 19.032M 34 19.032L 45 19.032C 46.104568 19.032 47 19.927429 47 21.032L 47 35.968002M 21.428001 45.032001L 18 57.032001M 34 19.032C 34 17.927431 33.104568 17.032 32 17.032L 26 17.032C 24.895432 17.032 24 17.927431 24 19.032C 24 20.13657 24.895432 21.032 26 21.032L 32 21.032C 33.104568 21.032 34 20.13657 34 19.032ZM 29.938 41.031998L 21 41.031998C 19.895432 41.031998 19 41.927429 19 43.032001L 19 44.032001C 19 44.584286 19.447716 45.032001 20 45.032001L 25.062 45.032001M 43 39.146L 29 44.706001L 43 49.646L 57 44.706001L 43 39.146ZM 29 44.706001L 29 52.032001M 35 46.824001L 35 53.132C 34.997421 53.747616 35.370762 54.302475 35.942001 54.531998L 42.442001 56.931999C 42.800076 57.075951 43.199928 57.075951 43.558002 56.932003L 50.057999 54.532001C 50.629234 54.302475 51.002579 53.747616 50.999996 53.131996L 51 46.824001"></path></g></g></g><g id="g-root-tx_communic_1hbc2pz4hf47e-stroke" data-item-order="1000000000" data-item-id="tx_communic_1hbc2pz4hf47e" data-item-class="Label Stroke" data-item-index="none" data-renderer-id="0" transform="translate(602, 231)"></g><g id="g-root-tx_programm_18kov5z4hdr0s-stroke" data-item-order="1000000000" data-item-id="tx_programm_18kov5z4hdr0s" data-item-class="Label Stroke" data-item-index="none" data-renderer-id="0" transform="translate(26, 249)"></g><g id="g-root-cu_4o6uh34h9iiu-stroke" data-item-order="1000000000" data-item-id="cu_4o6uh34h9iiu" data-item-class="Curve Stroke ColorStrokeBlack" data-item-index="none" data-renderer-id="0" transform="translate(272, 459)"><g id="cu_4o6uh34h9iiu-stroke" fill="none" stroke-linecap="round" stroke-linejoin="round" stroke-miterlimit="4" stroke="#666666" stroke-width="2" stroke-dasharray="5.0, 7.0"><g><path d="M 28 10L 28 22L 28 34L 19 34L 10 34"></path></g></g></g><g id="g-root-tx_machinel_diktdz4hdrt1-stroke" data-item-order="1000000000" data-item-id="tx_machinel_diktdz4hdrt1" data-item-class="Label Stroke" data-item-index="none" data-renderer-id="0" transform="translate(98, 285)"></g><g id="g-root-cu_1cu9pl34h9k3u-stroke" data-item-order="1000000000" data-item-id="cu_1cu9pl34h9k3u" data-item-class="Curve Stroke ColorStrokeBlack" data-item-index="none" data-renderer-id="0" transform="translate(314, 288)"><g id="cu_1cu9pl34h9k3u-stroke" fill="none" stroke-linecap="round" stroke-linejoin="round" stroke-miterlimit="4" stroke="#666666" stroke-width="2" stroke-dasharray="5.0, 7.0"><g><path d="M 58 10L 55 10L 54.9 10C 43.357248 10.000001 33.999999 19.357249 33.999999 30.9L 34 31L 34 133.1C 33.999997 144.642756 24.642747 154.000005 13.099996 154.000004L 13 154L 10 154"></path></g></g></g><g id="g-root-tx_educatio_1upwp1j4h5atq-stroke" data-item-order="1000000000" data-item-id="tx_educatio_1upwp1j4h5atq" data-item-class="Label Stroke" data-item-index="none" data-renderer-id="0" transform="translate(386, 282)"></g><g id="g-root-cu_1lynd1j4h82kh-stroke" data-item-order="1000000000" data-item-id="cu_1lynd1j4h82kh" data-item-class="Curve Stroke ColorStrokeBlack" data-item-index="none" data-renderer-id="0" transform="translate(492.5, 288)"><g id="cu_1lynd1j4h82kh-stroke" fill="none" stroke-linecap="round" stroke-linejoin="round" stroke-miterlimit="4" stroke="#666666" stroke-width="2" stroke-dasharray="5.0, 7.0"><g><path d="M 23.5 10L 25.2 10L 25.3 10C 31.761732 10 37.000001 15.238269 37 21.700001L 37 21.8L 37 23.6C 37 31.000616 31.000616 37 23.6 37L 23.5 37L 23.4 37C 15.999385 37 10.000001 42.999385 10.000001 50.400001L 10 50.5L 10 52.3C 10 58.761732 15.238268 64 21.7 64L 21.8 64L 23.5 64"></path></g></g></g><g id="g-root-tx_artifici_1d2dsjr4hdp8u-stroke" data-item-order="1000000000" data-item-id="tx_artifici_1d2dsjr4hdp8u" data-item-class="Label Stroke" data-item-index="none" data-renderer-id="0" transform="translate(74, 321)"></g><g id="g-root-cu_vcctdz4h82kk-stroke" data-item-order="1000000000" data-item-id="cu_vcctdz4h82kk" data-item-class="Curve Stroke ColorStrokeBlack" data-item-index="none" data-renderer-id="0" transform="translate(314, 30)"><g id="cu_vcctdz4h82kk-stroke" fill="none" stroke-linecap="round" stroke-linejoin="round" stroke-miterlimit="4" stroke="#666666" stroke-width="2" stroke-dasharray="5.0, 7.0"><g><path d="M 58 226L 55 226L 54.9 226C 43.35725 226.000002 34.000001 216.642753 34.000001 205.100002L 34 205L 34 30.9C 33.999998 19.357248 24.64275 10 13.1 10L 13 10L 10 10"></path></g></g></g><g id="g-root-4_1lz9nt34h5a86-stroke" data-item-order="1000000000" data-item-id="4_1lz9nt34h5a86" data-item-class="Icon Stroke" data-item-index="none" data-renderer-id="0" transform="translate(518, 327)"><g id="4_1lz9nt34h5a86-stroke" fill="none" stroke-linecap="round" stroke-linejoin="round" stroke-miterlimit="4" stroke="#4F92FF" stroke-width="2"><g><path d="M 16.25 35.625L 27.5 35.625M 24.375 33.125L 24.375 35.625M 10.625 28.125L 25.625 28.125M 27.5 33.125L 12.5 33.125C 11.464466 33.125 10.625 32.285534 10.625 31.25L 10.625 12.5C 10.625 11.464466 11.464466 10.625 12.5 10.625L 37.5 10.625C 38.535534 10.625 39.375 11.464466 39.375 12.5L 39.375 21.25M 15.9375 15L 28.4375 15M 15.9375 19.375L 28.4375 19.375M 15.9375 23.75L 23.125 23.75M 37.918747 31.3325L 37.918747 39.375L 34.168747 36.25L 30.418749 39.375L 30.418749 31.331251M 32.293747 27.5C 32.293751 28.535534 33.133217 29.375 34.168751 29.375C 35.204285 29.375 36.043751 28.535534 36.043751 27.5C 36.043751 26.464466 35.204285 25.625 34.168751 25.625C 33.133217 25.625 32.293751 26.464466 32.293751 27.5M 38.82 27.5C 39.469181 26.69857 39.557407 25.579983 39.041885 24.686691C 38.526367 23.793402 37.51371 23.310135 36.494999 23.471249C 36.124821 22.509418 35.200607 21.874819 34.170002 21.874819C 33.139389 21.874819 32.215179 22.509418 31.844999 23.471249C 30.82629 23.310135 29.813631 23.793402 29.298113 24.686691C 28.782593 25.579983 28.870815 26.69857 29.52 27.5C 28.871992 28.301926 28.784603 29.420055 29.300154 30.31292C 29.815704 31.205786 30.827772 31.689075 31.846252 31.528751C 32.216431 32.490582 33.140644 33.125183 34.171249 33.125183C 35.201859 33.125183 36.126068 32.490582 36.49625 31.528749C 37.51474 31.689222 38.52684 31.205713 39.041992 30.312578C 39.557148 29.419445 39.468887 28.301256 38.82 27.5Z"></path></g></g></g><g id="g-root-tx_degree_146qp534h5af9-stroke" data-item-order="1000000000" data-item-id="tx_degree_146qp534h5af9" data-item-class="Label Stroke" data-item-index="none" data-renderer-id="0" transform="translate(554, 330)"></g><g id="g-root-tx_software_i09qrr4hdq13-stroke" data-item-order="1000000000" data-item-id="tx_software_i09qrr4hdq13" data-item-class="Label Stroke" data-item-index="none" data-renderer-id="0" transform="translate(62, 357)"></g><g id="g-root-cu_1cw54uf4h9j48-stroke" data-item-order="1000000000" data-item-id="cu_1cw54uf4h9j48" data-item-class="Curve Stroke ColorStrokeBlack" data-item-index="none" data-renderer-id="0" transform="translate(547.4545288085938, 369)"><g id="cu_1cw54uf4h9j48-stroke" fill="none" stroke-linecap="round" stroke-linejoin="round" stroke-miterlimit="4" stroke="#666666" stroke-width="2" stroke-dasharray="5.0, 7.0"><g><path d="M 10 10L 10 17.5L 10 58C 10.000002 64.627417 15.372585 70 22.000002 69.999999L 22.1 70L 58.5 70"></path></g></g></g><g id="g-root-cu_v3m66f4h9jb9-stroke" data-item-order="1000000000" data-item-id="cu_v3m66f4h9jb9" data-item-class="Curve Stroke ColorStrokeBlack" data-item-index="none" data-renderer-id="0" transform="translate(547.4545288085938, 369)"><g id="cu_v3m66f4h9jb9-stroke" fill="none" stroke-linecap="round" stroke-linejoin="round" stroke-miterlimit="4" stroke="#666666" stroke-width="2" stroke-dasharray="5.0, 7.0"><g><path d="M 10 10L 10 22L 10 34L 34.3 34L 58.5 34"></path></g></g></g><g id="g-root-tx_bracuniv_18eg4av4hdpfx-stroke" data-item-order="1000000000" data-item-id="tx_bracuniv_18eg4av4hdpfx" data-item-class="Label Stroke" data-item-index="none" data-renderer-id="0" transform="translate(602, 381)"></g><g id="g-root-book_1d2dsjr4hm6tc-stroke" data-item-order="1000000000" data-item-id="book_1d2dsjr4hm6tc" data-item-class="Icon Stroke" data-item-index="none" data-renderer-id="0" transform="translate(272, 15)"><g id="book_1d2dsjr4hm6tc-stroke" fill="none" stroke-linecap="round" stroke-linejoin="round" stroke-miterlimit="4" stroke="#44E095" stroke-width="2"><g><path d="M 23.686251 35.267502C 22.1675 33.465 18.158751 31.705 11.855 31.501251C 11.172467 31.490328 10.624912 30.933872 10.625 30.251251L 10.625 12.51375C 10.624946 12.178294 10.759726 11.856894 10.999035 11.621816C 11.238345 11.386738 11.562099 11.257711 11.8975 11.26375C 20.0725 11.53625 24.375 14.43 24.375 16.625C 24.375 14.43625 29.205 11.5575 36.8475 11.265C 37.183758 11.257601 37.508812 11.386023 37.749214 11.62125C 37.989616 11.856478 38.12508 12.178659 38.125 12.515L 38.125 28.741249M 24.375 16.626249L 24.375 30.616249M 21.25 17.491249C 19.021309 16.69537 16.708702 16.157692 14.3575 15.88875M 28.125 23.116249C 30.354082 22.320248 32.667118 21.782566 35.018749 21.51375M 21.25 23.116249C 19.021309 22.32037 16.708702 21.782692 14.3575 21.51375M 21.25 28.116249C 19.000809 27.312845 16.666752 26.770538 14.29375 26.5M 28.125 17.491249C 30.374842 16.687138 32.709812 16.144814 35.083748 15.875M 39.375 38.741249L 39.375 37.366249C 39.385334 35.433556 37.87167 33.835583 35.94125 33.741249L 33.125 33.741249L 33.125 27.803749C 33.125 26.940805 32.425446 26.241249 31.5625 26.241249C 30.699556 26.241249 30 26.940805 30 27.803749L 30 36.866249L 28.098751 34.192501C 27.88517 33.768909 27.459635 33.493534 26.985723 33.472237C 26.511814 33.450935 26.063292 33.687027 25.812574 34.089752C 25.561857 34.492474 25.54797 34.999146 25.776249 35.414997L 27.526249 38.741249"></path></g></g></g><g id="g-root-tx_achievem_dhyfgn4h83ra-stroke" data-item-order="1000000000" data-item-id="tx_achievem_dhyfgn4h83ra" data-item-class="Label Stroke" data-item-index="none" data-renderer-id="0" transform="translate(134, 420)"></g><g id="g-root-2_zqaw934h82rz-stroke" data-item-order="1000000000" data-item-id="2_zqaw934h82rz" data-item-class="Icon Stroke" data-item-index="none" data-renderer-id="0" transform="translate(272, 417)"><g id="2_zqaw934h82rz-stroke" fill="none" stroke-linecap="round" stroke-linejoin="round" stroke-miterlimit="4" stroke="#CD6AFB" stroke-width="2"><g><path d="M 22.50375 10.93625L 22.50375 19.686251M 27.50375 10.93625L 27.50375 19.686251M 25.00375 10.93625L 25.00375 19.686251M 25 10.93625L 18.75 10.93625C 18.059645 10.93625 17.5 11.495894 17.5 12.18625L 17.5 13.9C 17.499977 14.007583 17.513842 14.114717 17.54125 14.21875L 20.625 25.9375M 25 10.93625L 31.25 10.93625C 31.940355 10.93625 32.5 11.495894 32.5 12.18625L 32.5 13.9C 32.500023 14.007583 32.48616 14.114717 32.458748 14.21875L 29.375 25.9375M 25.8825 23.97625L 27.80625 28.438751L 31.549999 28.438751C 31.937012 28.424667 32.291302 28.654776 32.435802 29.014074C 32.580307 29.373373 32.483994 29.784704 32.195 30.0425L 28.945 32.9375L 30.745001 37.078751C 30.906979 37.467136 30.80328 37.915562 30.48724 38.193405C 30.1712 38.471249 29.713186 38.516647 29.348751 38.306252L 25 35.855L 20.650002 38.306252C 20.285395 38.519596 19.825171 38.475643 19.507536 38.197144C 19.189901 37.918648 19.086157 37.468121 19.25 37.078751L 21.049999 32.9375L 17.799999 30.043751C 17.510403 29.786446 17.413317 29.375135 17.557287 29.015488C 17.701258 28.655842 18.055347 28.425144 18.442501 28.438751L 22.192499 28.438751L 24.11875 23.97625C 24.292702 23.650885 24.631678 23.447733 25.000626 23.447733C 25.369572 23.447733 25.708548 23.650885 25.8825 23.97625Z"></path></g></g></g><g id="g-root-tx_jul2020o_vk5j4hdrt2-stroke" data-item-order="1000000000" data-item-id="tx_jul2020o_vk5j4hdrt2" data-item-class="Label Stroke" data-item-index="none" data-renderer-id="0" transform="translate(602, 417)"></g><g id="g-root-tx_scholars_18hkhqf4hf40c-stroke" data-item-order="1000000000" data-item-id="tx_scholars_18hkhqf4hf40c" data-item-class="Label Stroke" data-item-index="none" data-renderer-id="0" transform="translate(2, 471)"></g><g id="g-root-tx_coursewo_meuapz4hm4nb-stroke" data-item-order="1000000000" data-item-id="tx_coursewo_meuapz4hm4nb" data-item-class="Label Stroke" data-item-index="none" data-renderer-id="0" transform="translate(146, 18)"></g><g id="g-root-tx_teamwork_8ydznr4hf3er-stroke" data-item-order="1000000000" data-item-id="tx_teamwork_8ydznr4hf3er" data-item-class="Label Stroke" data-item-index="none" data-renderer-id="0" transform="translate(602, 267)"></g></g></g></svg>